<svg width="18" height="18" viewBox="0 0 18 18" fill="none" xmlns="http://www.w3.org/2000/svg">
<path d="M15.6667 0.666664H2.33332C1.41666 0.666664 0.67499 1.41666 0.67499 2.33333L0.666656 17.3333L3.99999 14H15.6667C16.5833 14 17.3333 13.25 17.3333 12.3333V2.33333C17.3333 1.41666 16.5833 0.666664 15.6667 0.666664ZM13.1667 10.6667H4.83332C4.37499 10.6667 3.99999 10.2917 3.99999 9.83333C3.99999 9.375 4.37499 9 4.83332 9H13.1667C13.625 9 14 9.375 14 9.83333C14 10.2917 13.625 10.6667 13.1667 10.6667ZM13.1667 8.16666H4.83332C4.37499 8.16666 3.99999 7.79166 3.99999 7.33333C3.99999 6.875 4.37499 6.5 4.83332 6.5H13.1667C13.625 6.5 14 6.875 14 7.33333C14 7.79166 13.625 8.16666 13.1667 8.16666ZM13.1667 5.66666H4.83332C4.37499 5.66666 3.99999 5.29166 3.99999 4.83333C3.99999 4.375 4.37499 4 4.83332 4H13.1667C13.625 4 14 4.375 14 4.83333C14 5.29166 13.625 5.66666 13.1667 5.66666Z" fill="#F59E0B"/>
</svg>
