<svg width="14" height="14" viewBox="0 0 14 14" fill="none" xmlns="http://www.w3.org/2000/svg">
<path d="M7.66668 3.66667H6.33334V6.33334H3.66668V7.66667H6.33334V10.3333H7.66668V7.66667H10.3333V6.33334H7.66668V3.66667ZM7.00001 0.333336C3.32001 0.333336 0.333344 3.32 0.333344 7C0.333344 10.68 3.32001 13.6667 7.00001 13.6667C10.68 13.6667 13.6667 10.68 13.6667 7C13.6667 3.32 10.68 0.333336 7.00001 0.333336ZM7.00001 12.3333C4.06001 12.3333 1.66668 9.94 1.66668 7C1.66668 4.06 4.06001 1.66667 7.00001 1.66667C9.94001 1.66667 12.3333 4.06 12.3333 7C12.3333 9.94 9.94001 12.3333 7.00001 12.3333Z" fill="#DADEE6"/>
</svg>
