<svg width="48" height="48" viewBox="0 0 48 48" fill="none" xmlns="http://www.w3.org/2000/svg">
<path fill-rule="evenodd" clip-rule="evenodd" d="M5.99255 13.9958C5.99255 9.57571 9.57577 5.99249 13.9959 5.99249H34.0042C38.4243 5.99249 42.0076 9.57571 42.0076 13.9958V34.0042C42.0076 38.4243 38.4243 42.0075 34.0042 42.0075H13.9959C9.57577 42.0075 5.99255 38.4243 5.99255 34.0042V13.9958Z" fill="#00DAD4" fill-opacity="0.1" stroke="#00BAB5" stroke-width="2.5" stroke-linecap="round" stroke-linejoin="round"/>
<path d="M24 32.0033L33.1758 22.8275C34.7385 21.2653 37.2715 21.2653 38.8342 22.8275L42.0075 26.0008" stroke="#00BAB5" stroke-width="2.5" stroke-linecap="round" stroke-linejoin="round"/>
<path fill-rule="evenodd" clip-rule="evenodd" d="M14.9962 17.9975C16.6538 17.9975 17.9975 16.6538 17.9975 14.9962C17.9975 13.3387 16.6538 11.995 14.9962 11.995C13.3387 11.995 11.995 13.3387 11.995 14.9962C11.995 16.6538 13.3387 17.9975 14.9962 17.9975Z" stroke="#00BAB5" stroke-width="2.5" stroke-linecap="round" stroke-linejoin="round"/>
<path d="M6.69885 37.2935L15.1624 28.83C16.725 27.2678 19.2581 27.2678 20.8207 28.83L33.6601 41.6694" stroke="#00BAB5" stroke-width="2.5" stroke-linecap="round" stroke-linejoin="round"/>
</svg>
