<svg width="39" height="39" viewBox="0 0 39 39" fill="none" xmlns="http://www.w3.org/2000/svg">
<path d="M20.9577 35.698C20.0952 35.7005 19.2677 35.3576 18.6599 34.7457L5.92479 22.0139C5.2528 21.3441 4.9083 20.4134 4.98228 19.4675L5.79479 8.79774C5.91084 7.19172 7.19134 5.91608 8.79779 5.80612L19.4675 4.99362C19.552 4.97574 19.6349 4.97574 19.7194 4.97574C20.5801 4.97471 21.4056 5.31753 22.0123 5.92799L34.7474 18.6582C35.3572 19.2678 35.6998 20.0946 35.6998 20.9568C35.6998 21.819 35.3572 22.6458 34.7474 23.2554L23.2554 34.7457C22.6474 35.3573 21.82 35.7001 20.9577 35.698ZM14.0628 10.8127C12.5919 10.8132 11.3046 11.8015 10.9243 13.2223C10.5439 14.6432 11.1653 16.1424 12.4393 16.8776C13.7133 17.6129 15.3222 17.4007 16.3622 16.3605L16.3735 16.3507L16.3849 16.3394L16.3719 16.3507C17.2956 15.4189 17.5684 14.023 17.0634 12.812C16.5585 11.601 15.3749 10.8123 14.0628 10.8127Z" fill="#C4CAD3"/>
</svg>
