<svg width="48" height="46" viewBox="0 0 48 46" fill="none" xmlns="http://www.w3.org/2000/svg">
<path fill-rule="evenodd" clip-rule="evenodd" d="M36.0953 38.5523L21.2904 23.7712V2.66667C21.2904 1.19391 22.4862 0 23.9614 0C25.4365 0 26.6323 1.19391 26.6323 2.66667V21.5621L39.8726 34.7811L47.1458 27.5195C47.461 27.2048 48 27.4277 48 27.8728V44.8337C48 45.1097 47.776 45.3333 47.4996 45.3333H30.5114C30.0656 45.3333 29.8423 44.7952 30.1575 44.4805L36.0953 38.5523Z" fill="#FF0000"/>
<path fill-rule="evenodd" clip-rule="evenodd" d="M15.5587 27.1019L19.0093 31.1733L11.2604 37.7195L18.0323 44.4805C18.3475 44.7952 18.1243 45.3333 17.6784 45.3333H0.500402C0.224038 45.3333 0 45.1096 0 44.8337L0 27.6833C0 27.2382 0.539005 27.0153 0.85424 27.33L7.47 33.9351L15.5587 27.1019Z" fill="#FF0000"/>
</svg>
