<svg width="53" height="54" viewBox="0 0 53 54" fill="none" xmlns="http://www.w3.org/2000/svg">
<path fill-rule="evenodd" clip-rule="evenodd" d="M23.9394 16.5677C23.9601 16.3077 24.1771 16.1074 24.4378 16.1074H26.049C26.3052 16.1074 26.5199 16.301 26.5463 16.5559L27.7618 28.2933L36.3367 33.025C36.4961 33.113 36.5951 33.2807 36.5951 33.4628V34.9561C36.5951 35.284 36.2849 35.5231 35.9678 35.4396L23.1184 32.0555C22.8844 31.9939 22.7282 31.7735 22.7474 31.5323L23.9394 16.5677Z" fill="#FABB18"/>
<path fill-rule="evenodd" clip-rule="evenodd" d="M12.1637 0.17698C11.8946 -0.132664 11.3774 -0.0167223 11.2807 0.374921L7.85021 14.2631C7.77098 14.5839 8.03553 14.8892 8.3765 14.8706L23.1712 14.061C23.5882 14.0382 23.7974 13.5657 23.5279 13.2555L19.5563 8.6848C21.7612 7.95722 24.0993 7.5772 26.5 7.5772C38.3478 7.5772 47.9524 16.8521 47.9524 28.2933C47.9524 39.7344 38.3478 49.0093 26.5 49.0093C14.6522 49.0093 5.04762 39.7344 5.04762 28.2933C5.04762 26.3726 5.31696 24.4914 5.84214 22.6834L0.982099 21.3669C0.342215 23.5698 0 25.893 0 28.2933C0 42.4265 11.8645 53.8837 26.5 53.8837C41.1355 53.8837 53 42.4265 53 28.2933C53 14.1601 41.1355 2.70283 26.5 2.70283C22.8186 2.70283 19.3126 3.42773 16.1266 4.73777L12.1637 0.17698Z" fill="#FABB18"/>
</svg>
