<svg width="28" height="28" viewBox="0 0 28 28" fill="none" xmlns="http://www.w3.org/2000/svg">
<path fill-rule="evenodd" clip-rule="evenodd" d="M12.2145 9.21165C12.2345 8.95115 12.4517 8.75 12.713 8.75H12.9642C13.221 8.75 13.4361 8.94465 13.4617 9.20025L14 14.5833L17.8314 16.7727C17.9872 16.8617 18.0833 17.0274 18.0833 17.2068V17.4287C18.0833 17.7584 17.7698 17.9978 17.4518 17.9111L12.0653 16.4421C11.8339 16.379 11.68 16.1605 11.6984 15.9213L12.2145 9.21165Z" fill="black"/>
<path opacity="0.3" fill-rule="evenodd" clip-rule="evenodd" d="M7.12809 1.52768C6.86399 1.21293 6.35404 1.3334 6.25871 1.73306L4.87773 7.5227C4.80005 7.84835 5.05812 8.15685 5.39237 8.13791L11.3482 7.8004C11.7591 7.77711 11.9675 7.29508 11.703 6.97981L10.2069 5.19686C11.2261 4.84858 12.3069 4.66667 13.4167 4.66667C18.8935 4.66667 23.3334 9.10651 23.3334 14.5833C23.3334 20.0602 18.8935 24.5 13.4167 24.5C7.93986 24.5 3.50002 20.0602 3.50002 14.5833C3.50002 13.6639 3.62453 12.7634 3.8673 11.8979L1.62068 11.2677C1.32488 12.3223 1.16669 13.4343 1.16669 14.5833C1.16669 21.3488 6.6512 26.8333 13.4167 26.8333C20.1822 26.8333 25.6667 21.3488 25.6667 14.5833C25.6667 7.81785 20.1822 2.33333 13.4167 2.33333C11.7149 2.33333 10.0942 2.68033 8.62149 3.30744L7.12809 1.52768Z" fill="black"/>
</svg>
